<svg xmlns="http://www.w3.org/2000/svg" viewBox="0 0 512 640" x="0px" y="0px"><path d="m180.916,361.91c0,6.011,4.906,10.902,10.936,10.902s10.935-4.891,10.935-10.902-4.906-10.901-10.935-10.901-10.936,4.89-10.936,10.901Zm10.936-4.894c2.707,0,4.91,2.195,4.91,4.894s-2.202,4.895-4.91,4.895-4.91-2.196-4.91-4.895,2.203-4.894,4.91-4.894Z" style="" stroke-width="0px"/><path d="m245.806,161.383c3.358-3.126,5.697-7.552,7.119-13.538,1.654,9.528,6.108,18.364,19.071,18.858.435.016.863.025,1.287.025,6.202,0,11.247-1.772,15.009-5.274,5.563-5.179,8.347-13.895,8.758-27.431.587-19.308-7.07-29.453-22.758-30.155-6.161-.271-11.229,1.496-15.055,5.264-2.803,2.761-4.811,6.479-6.029,11.099-2.828-10.405-9.987-15.922-21.403-16.433-6.162-.271-11.229,1.496-15.055,5.264-5.288,5.209-7.774,13.788-7.388,25.5.411,12.481,1.033,31.343,20.146,32.071.435.016.864.025,1.288.025,6.201,0,11.247-1.772,15.009-5.274Zm17.667-47.978c2.398-2.362,5.63-3.557,9.618-3.557.23,0,.466.008.701.016-1.545,4.272-2.235,9.593-2.04,15.826,5.05,1.993,13.357,5.274,12.935,5.134-.399-.133-7.304,4.38-11.936,7.453,1.389,8.573,4.746,14.985,13.442,16.409-.613.898-1.281,1.695-2.012,2.376-2.842,2.646-6.756,3.83-11.954,3.637-11.484-.437-13.779-8.818-14.354-26.265-.324-9.83,1.612-17.102,5.6-21.03Zm-48.087,20.959c-.324-9.83,1.612-17.102,5.6-21.03,2.398-2.362,5.63-3.557,9.618-3.557.23,0,.466.008.701.016-1.545,4.272-2.235,9.593-2.041,15.826,5.05,1.993,13.357,5.274,12.935,5.134-.399-.133-7.304,4.38-11.936,7.453,1.389,8.573,4.746,14.985,13.442,16.409-.613.898-1.281,1.695-2.012,2.376-2.842,2.646-6.757,3.836-11.954,3.637-11.484-.437-13.779-8.818-14.354-26.265Z" style="" stroke-width="0px"/><path d="m277.732,172.628c-.198.2-4.938,4.871-11.44,3.019-6.829-1.945-7.981-7.872-8.035-8.174-.27-1.626-1.803-2.734-3.442-2.476-1.644.259-2.765,1.797-2.506,3.435.053.332,1.159,6.797,7.395,10.793-2.033,2.267-6.046,4.83-11.803,4.35-8.02-.666-10.854-8.224-10.982-8.577-.551-1.558-2.263-2.381-3.831-1.837-1.572.545-2.403,2.257-1.856,3.823.165.473,4.175,11.581,16.169,12.578.609.051,1.211.075,1.804.075,7.34,0,13.377-3.744,16.265-8.008,1.359.318,2.662.466,3.896.466,7.465,0,12.439-5.023,12.686-5.278,1.152-1.187,1.119-3.072-.065-4.227-1.182-1.154-3.087-1.135-4.254.038Z" style="" stroke-width="0px"/><path d="m402.797,330.002c-1.793,1.377-1.02,11.508,3.216,18.425,2.831,4.622,7.762,8.155,12.461,5.405,6.68-3.909,5.216-10.758.787-15.638-5.359-5.904-14.826-9.45-16.464-8.192Z" style="" stroke-width="0px"/><path d="m156.956,230.791c-1.489-.741-3.298-.141-4.042,1.343l-1.697,3.383c-.744,1.484-.141,3.288,1.347,4.03.433.216.892.318,1.345.318,1.105,0,2.169-.609,2.697-1.661l1.697-3.383c.744-1.484.141-3.288-1.347-4.03Z" style="" stroke-width="0px"/><path d="m170.777,245.662l-1.697-1.269c-1.331-.996-3.219-.727-4.218.601-.999,1.327-.729,3.21.602,4.205l1.697,1.269c.542.406,1.176.601,1.805.601.916,0,1.821-.415,2.412-1.201.999-1.327.729-3.21-.602-4.205Z" style="" stroke-width="0px"/><path d="m203.009,245.215l-3.817,1.269c-1.579.525-2.431,2.226-1.905,3.799.421,1.258,1.597,2.054,2.858,2.054.316,0,.637-.05.953-.155l3.817-1.269c1.579-.525,2.431-2.226,1.905-3.799-.527-1.574-2.234-2.423-3.811-1.9Z" style="" stroke-width="0px"/><path d="m231.607,243.687c-1.487-.741-3.298-.14-4.042,1.344l-.424.846c-.744,1.484-.14,3.288,1.348,4.029.432.215.892.318,1.345.318,1.105,0,2.17-.609,2.697-1.662l.424-.846c.744-1.484.14-3.288-1.348-4.029Z" style="" stroke-width="0px"/><path d="m250.195,253.095h-3.394c-1.664,0-3.013,1.345-3.013,3.004s1.349,3.004,3.013,3.004h3.394c1.664,0,3.013-1.345,3.013-3.004s-1.349-3.004-3.013-3.004Z" style="" stroke-width="0px"/><path d="m283.049,237.897c-1.065-1.275-2.965-1.446-4.244-.385-1.278,1.062-1.451,2.956-.386,4.23l2.121,2.537c.596.713,1.453,1.081,2.316,1.081.68,0,1.364-.228,1.927-.696,1.278-1.062,1.451-2.956.386-4.23l-2.121-2.537Z" style="" stroke-width="0px"/><path d="m349.447,239.565h-.848c-1.664,0-3.013,1.345-3.013,3.004s1.349,3.004,3.013,3.004h.848c1.664,0,3.013-1.345,3.013-3.004s-1.349-3.004-3.013-3.004Z" style="" stroke-width="0px"/><path d="m357.062,222.344c-1.601-.455-3.267.468-3.725,2.063l-.848,2.96c-.457,1.595.469,3.257,2.069,3.713.277.079.555.116.829.116,1.311,0,2.517-.86,2.896-2.179l.848-2.96c.457-1.595-.469-3.257-2.069-3.713Z" style="" stroke-width="0px"/><path d="m287.512,251.226l-.424.423c-1.177,1.173-1.178,3.074-.002,4.248.588.587,1.36.881,2.131.881s1.541-.293,2.129-.879l.424-.423c1.177-1.173,1.178-3.074.002-4.248-1.176-1.174-3.084-1.175-4.261-.002Z" style="" stroke-width="0px"/><path d="m312.442,241.41l-2.545.845c-1.579.525-2.432,2.226-1.906,3.799.421,1.259,1.596,2.055,2.858,2.055.316,0,.637-.05.953-.155l2.545-.845c1.579-.525,2.432-2.226,1.906-3.799s-2.23-2.424-3.811-1.9Z" style="" stroke-width="0px"/><path d="m345.44,341.948c6.126,0,11.11-4.968,11.11-11.075s-4.984-11.075-11.11-11.075-11.11,4.968-11.11,11.075,4.984,11.075,11.11,11.075Zm0-16.143c2.803,0,5.084,2.274,5.084,5.068s-2.281,5.068-5.084,5.068-5.084-2.274-5.084-5.068,2.281-5.068,5.084-5.068Z" style="" stroke-width="0px"/><path d="m209.933,98.375s0,0,0,0c-2.372-3.817-8.101-2.968-12.672-.898-6.065,2.746-9.199,7.067-7.985,11.007,1.218,3.949,4.049,4.911,5.629,5.133.336.047.677.07,1.021.07,4.97,0,10.691-4.712,13.122-8.426,2.189-3.343,1.69-5.589.885-6.885Zm-13.785,9.299c-.511.042-.797.065-1.107-.92.007-.213.536-1.384,2.855-2.822,2.387-1.48,4.905-2.137,6.294-2.201-1.273,2.11-5.254,5.718-8.042,5.943Z" style="" stroke-width="0px"/><path d="m179.261,124.111c-2.423-3.353-5.414-3.361-6.981-3.067-5.143.964-9.528,7.838-10.717,12.43-1,3.866.194,5.835,1.372,6.805h0c1.037.855,2.223,1.219,3.475,1.219,2.943,0,6.248-2.013,8.82-4.412,4.864-4.537,6.445-9.629,4.03-12.975Zm-6.706,7.062c-1.787,2.164-3.961,3.589-5.256,4.094.529-2.405,3.141-7.094,5.711-8.196.186-.08.339-.146.494-.146.239,0,.48.157.85.664.062.204-.063,1.483-1.799,3.585Z" style="" stroke-width="0px"/><path d="m188.171,144.302c-3.774-1.334-5.847-.322-6.921.762h0c-3.164,3.198-.987,8.549,2.106,12.49,3.027,3.857,6.512,5.968,9.56,5.968,1.086,0,2.116-.268,3.05-.821,3.564-2.109,3.836-5.079,3.68-6.661-.509-5.192-6.991-10.153-11.475-11.738Zm4.752,13.219c-.207.043-1.474-.191-3.423-2.102-2.005-1.965-3.238-4.25-3.627-5.581,2.356.737,6.811,3.745,7.686,6.394.161.489.25.758-.636,1.288Z" style="" stroke-width="0px"/><path d="m233.944,97.691c1.117.162,2.187.242,3.2.242,4.967,0,8.559-1.9,9.486-5.196h0c1.117-3.979-.743-6.315-1.951-7.352-3.965-3.406-12.089-2.534-16.43-.594-3.655,1.632-4.453,3.791-4.479,5.316-.075,4.491,5.207,6.864,10.174,7.586Zm6.466-7.978c.452.241.702.374.424,1.382-.158.193-1.257.857-3.923.823-2.811-.041-5.286-.847-6.489-1.541,2.215-1.089,7.521-1.978,9.988-.664Z" style="" stroke-width="0px"/><path d="m299.525,102.393c1.069,0,2.074-.078,2.959-.227,3.949-.663,5.267-2.551,5.677-4.019,0,0,0,0,0-.001,1.206-4.328-3.306-7.949-7.931-9.895-6.137-2.583-11.447-1.949-13.529,1.612-2.086,3.57-.876,6.297.032,7.604,2.415,3.482,8.192,4.925,12.792,4.925Zm-7.64-9.477c.09-.078.514-.24,1.331-.24.642,0,1.527.1,2.686.419,2.71.746,4.901,2.146,5.89,3.119-2.42.498-7.778.027-9.835-1.863-.379-.349-.588-.541-.072-1.435Z" style="" stroke-width="0px"/><path d="m333.504,131.811c1.094,0,2.131-.271,3.069-.83,3.557-2.121,3.819-5.091,3.659-6.673-.526-5.19-7.024-10.13-11.512-11.701-3.778-1.321-5.848-.303-6.919.784,0,0,0,0,0,0-3.154,3.208-.959,8.552,2.147,12.483,3.032,3.837,6.515,5.936,9.557,5.936Zm.642-7.291c.163.488.253.757-.632,1.291-.214.044-1.477-.19-3.43-2.091-2.011-1.959-3.251-4.24-3.645-5.569,2.359.73,6.823,3.724,7.707,6.369Z" style="" stroke-width="0px"/><path d="m314.043,153.014c1.927,1.629,3.552,2.145,4.839,2.145.753,0,1.39-.177,1.903-.411,0,0,.001,0,.001,0,4.096-1.871,3.963-7.644,2.473-12.423-1.977-6.341-5.886-9.981-9.96-9.269-4.082.712-5.393,3.393-5.81,4.927-1.371,5.035,2.925,11.965,6.554,15.031Zm.259-14.041c.211.033,1.311.702,2.453,3.175,1.176,2.546,1.516,5.119,1.406,6.5-1.941-1.522-5.036-5.909-4.912-8.695.023-.514.035-.797,1.053-.98Z" style="" stroke-width="0px"/><path d="m340.295,164.447s0,0,.001,0c.825.584,1.887.948,3.135.948,2.395,0,5.478-1.339,8.893-5.025,4.52-4.878,5.726-10.072,3.072-13.233-2.661-3.169-5.646-2.96-7.186-2.553-5.059,1.335-8.931,8.509-9.78,13.174-.715,3.928.619,5.805,1.865,6.688Zm9.083-13.904c.195-.101.352-.183.521-.183.227,0,.474.149.858.602.076.199.045,1.483-1.533,3.706-1.624,2.288-3.688,3.867-4.943,4.464.352-2.437,2.615-7.303,5.097-8.589Z" style="" stroke-width="0px"/><path d="m162.58,147.217c-4.151-.172-5.992,2.177-6.726,3.589-2.409,4.631.317,12.311,3.212,16.074,1.957,2.544,3.819,3.224,5.25,3.224.351,0,.676-.041.97-.105,0,0,0,0,.001,0,4.401-.964,5.498-6.634,5.057-11.619-.585-6.614-3.633-10.996-7.764-11.162Zm1.437,16.266c-1.573-1.898-3.666-6.839-2.953-9.535.124-.469.195-.739,1.065-.739.054,0,.111.001.172.003.199.077,1.132.963,1.723,3.621.608,2.737.393,5.323-.007,6.65Z" style="" stroke-width="0px"/><path d="m453.995,286.657c.028-1.571-.044-5.439-1.18-9.734-1.595-6.025-4.673-10.601-8.99-13.458,2.04-2.809,3.649-7.408.217-14.251-3.525-7.027-9.937-7.525-14.551-7.099-4.312-27.482-19.379-42.319-31.491-49.978-9.822-6.212-19.135-8.762-23.732-9.722-.059-1.387-.118-2.795-.179-4.244-1.416-33.395-10.832-59.306-27.989-77.013-19.844-20.481-50.291-30.247-90.483-29.034-85.402,2.58-108.609,55.073-114.84,86.134-2.04,10.168-2.907,24.09-3.158,38.1-10.535-2.199-18.841-8.836-24.705-19.763-3.743-6.976-5.34-13.723-5.862-16.356,2.017-.349,3.905-.76,5.575-1.246,5.149-1.497,10.518-5.771,10.141-13.278-.189-3.773-1.428-6.827-3.502-8.905,2.418-1.432,4.438-3.174,6.033-5.24,5.38-6.971,4.266-15.443,3.538-18.762-1.004-4.574-2.898-8.127-5.679-10.714.439-3.233.408-6.402.382-8.732l-.002-.204c-.061-5.691-2.148-11.038-5.584-14.303-2.659-2.527-6.05-3.79-9.811-3.651-4.709.174-7.767,2.241-9.594,4.13-2.563-1.871-6.718-4.113-11.516-3.66-4.576.434-7.823,2.707-9.763,4.573-2.377-1.58-6.22-3.339-10.767-2.469-5.418,1.039-10.764,5.929-10.495,14.511.015.481.022,1.069.029,1.741.036,3.075.092,7.504.884,11.76-.028,2.149-.011,13.052,2.889,22.879,1.467,4.973,3.921,8.567,6.869,11.069-1.803,1.986-3.695,4.99-3.919,9.018-.206,3.697.822,6.905,2.974,9.279,2.198,2.424,5.451,3.801,9.408,3.98.521.023,1.377.047,2.489.062.375,4.296,1.976,16.484,8.562,29.143,7.249,13.936,22.059,30.893,51.623,33.861.41,14.73,1.135,25.835,1.211,26.978,2.089,33.297,14.67,50.891,37.391,52.282,3.809.233,10.377.447,18.769.617l-14.456,22.85c-.945,1.168-1.953,2.145-2.997,2.963-.72-1.282-2.284-1.882-3.701-1.338-1.552.598-2.325,2.336-1.726,3.884l.097.25c-1.672.513-3.342.734-4.931.736l.023-.156c.239-1.641-.901-3.166-2.548-3.405-1.635-.237-3.149.883-3.406,2.505-.463-.177-.9-.37-1.301-.576-1.105-.569-2.229-1.174-3.363-1.794.604-1.401.07-3.053-1.296-3.807-1.352-.747-3.023-.333-3.9.894-.728-.416-1.458-.833-2.202-1.259-1.518-.87-3.042-1.742-4.568-2.603.741-1.423.239-3.186-1.17-3.988-1.434-.816-3.255-.327-4.09,1.089-11.131-5.951-22.189-10.414-31.937-7.773-5.696,1.544-10.37,5.45-13.893,11.61-4.478,7.829-2.937,15.439,4.712,23.266,6.477,6.627,17.198,13.422,29.613,21.29l2.092,1.327c4.482,2.843,9.013,5.745,13.448,8.586,5.574,3.569,10.397,6.643,14.593,9.289-5.165,2.038-9.435,4.577-12.383,7.744-3.533,3.795-5.109,8.27-4.686,13.301,2.093,24.874,23.853,30.136,70.948,30.136,11.977,0,25.597-.341,40.944-.785l.839-.025c39.597-1.148,65.757-1.906,82.683-5.627,18.223-4.006,25.875-11.756,25.584-25.912-.113-5.483-2.312-10.258-6.538-14.193-17.96-16.723-70.434-14.226-95.652-13.025-3.036.144-5.658.269-7.758.339-2.894.096-7.363.056-12.537.01-9.565-.085-22.005-.195-34.801.396,4.529-7.014,10.297-16.254,17.691-28.451,13.059-21.544,25.584-43.128,28.055-47.396.341-.002.682-.004,1.024-.005,1.859,8.953,11.923,54.364,26.347,62.207,10.479,5.697,29.189.653,45.696-3.798,3.896-1.05,7.576-2.043,10.849-2.804,1.922-.447,3.766-.539,5.525-.351-.461,1.535.361,3.172,1.895,3.699.325.111.656.165.982.165,1.25,0,2.418-.781,2.849-2.025l.04-.117c1.219.61,2.379,1.351,3.473,2.199-.992,1.192-.928,2.957.203,4.057.586.57,1.345.854,2.104.854.701,0,1.394-.256,1.956-.739,1.124,1.357,2.136,2.81,3.027,4.301l-.262.159c-1.422.862-1.874,2.709-1.01,4.127.567.93,1.56,1.444,2.577,1.444.466,0,.935-.115,1.373-.34l.338.774c.492,1.128.986,2.262,1.485,3.394-1.45.729-2.069,2.476-1.374,3.952.513,1.089,1.598,1.728,2.729,1.728.371,0,.745-.083,1.108-.227,2.763,5.923,5.764,11.554,9.372,16.011,5.047,6.235,10.79,9.371,17.133,9.371,1.902,0,3.858-.282,5.865-.847,4.331-1.219,7.539-3.754,9.536-7.534,6.436-12.185-1.225-34.747-8.633-56.566l-.709-2.088c-1.013-2.988-2.012-5.989-2.992-8.932-7.524-22.6-10.754-31.32-14.862-33.231-3.145-1.464-10.707-2.074-41.508,6.261-12.526,3.39-24.534,7.112-29.838,8.788l-5-14.813c12.847-.454,24.089-1.091,32.114-1.955,9.897-1.067,18.072-4.118,24.448-9.086,5.041,3.911,10.062,5.35,15.099,1.898,3.712-2.544,2.333-8.034-2.121-15.645-.378-.645-.771-1.261-1.171-1.864,2.812-6.539,3.937-13.23,4.587-18.742,1.286-10.897,1.588-17.458.661-43.711,7.254,3.014,22.988,12.279,26.908,36.693-.628.332-1.142.621-1.498.847-7.065,4.482-9.828,10.702-7.392,16.638,1.274,3.104,3.339,4.96,5.477,6.022-2.695,2.667-4.978,5.923-5.901,9.758-1.886,7.835-.519,16.513,3.483,22.109,2.775,3.88,6.653,6.195,11.226,6.717.402,1.349.739,2.405.965,2.984,2.204,5.65,6.91,8.255,11.077,8.255.677,0,1.341-.069,1.976-.205,2.664-.569,4.871-2.386,6.347-4.967,1.339.481,3.01.908,4.739.908,1.097,0,2.217-.172,3.285-.61,3.707-1.522,5.667-4.253,6.7-7.247,1.319-.169,3.066-.529,4.863-1.297,4.94-2.111,7.822-6.314,8.114-11.834.351-6.655-1.26-11.599-1.955-13.389ZM62.894,104.92c-.743-3.945-.8-8.435-.829-10.96-.008-.717-.016-1.345-.032-1.859-.169-5.392,2.916-7.908,5.61-8.424,4.246-.817,7.81,2.768,7.833,2.792.635.665,1.549.992,2.466.909.918-.085,1.753-.594,2.255-1.365.104-.159,2.597-3.903,7.409-4.359,4.853-.463,9.209,4.067,9.245,4.104.689.737,1.695,1.099,2.691.933s1.835-.801,2.247-1.721c.071-.146,1.784-3.586,6.579-3.763,2.157-.073,3.934.573,5.43,1.995,2.249,2.138,3.673,5.977,3.716,10.02l.002.205c.02,1.851-.004,3.573-.096,5.154-3.437-1.302-7.601-1.834-12.535-1.587-5.772.288-9.151.916-11.662,2.167-3.527,1.758-5.209,4.763-5,8.934.085,1.698.439,3.223,1.054,4.569-.427.087-.878.139-1.355.153-3.126.084-5.769-6.947-6.476-10.17-.301-1.39-1.534-2.37-2.943-2.37-.066,0-.133.002-.2.007-1.491.098-2.684,1.27-2.805,2.754-.007.088-.878,8.864-6.533,9.49-1.718.193-2.612-.4-3.135-.862-1.494-1.317-2.382-3.849-2.92-6.666-.004-.027-.01-.053-.016-.079Zm12.522,51.093c-2.346-.106-4.1-.782-5.211-2.007-1.325-1.461-1.508-3.481-1.428-4.917.165-2.963,1.939-5.043,3.179-6.151,2.768,1.134,5.689,1.624,8.485,1.624,1.346,0,2.665-.113,3.922-.322,1.641-.273,2.75-1.82,2.477-3.457-.274-1.636-1.827-2.74-3.467-2.469-1.803.3-5.977.669-9.96-1.266-.242-.182-.51-.315-.791-.416-2.855-1.629-5.522-4.548-7.03-9.658-.93-3.153-1.534-6.478-1.927-9.544,1.446.774,3.075,1.163,4.828,1.139.221.025.446.032.677.007,4.014-.451,10.833,3.534,12.364,10.783.299,1.414,1.551,2.385,2.945,2.385.206,0,.414-.021.623-.065,1.629-.342,2.67-1.934,2.328-3.558-1.335-6.323-5.549-11.104-10.287-13.614.572-.659,1.105-1.383,1.584-2.194,1.934,3.396,4.866,6.512,9.114,6.512.085,0,.171-.001.257-.004,2.17-.064,4.047-.573,5.665-1.386,1.379.77,3,1.333,4.885,1.681-1.471,1.655-2.818,3.765-3.805,6.448-.573,1.557.229,3.283,1.791,3.854.57.208,1.163.23,1.714.103.957-.221,1.789-.9,2.152-1.888,2.682-7.291,9.026-8.42,9.27-8.46,1.605-.237,2.723-1.698,2.548-3.297-.003-.023,0-.045-.002-.067-.216-1.627-1.702-2.782-3.335-2.59-2.896.336-5.192.387-7.027.261-1.246-.085-2.276-.252-3.126-.47-1.43-.368-2.363-.876-2.962-1.381-.527-.445-1.198-1.202-1.49-2.724-.064-.335-.116-.694-.137-1.109-.1-1.989.512-2.681,1.676-3.261.096-.048.214-.087.317-.132,1.645-.716,4.146-1.068,6.593-1.26.805-.063,1.603-.111,2.358-.149,4.817-.242,8.503.276,11.279,1.667,2.026,1.016,3.56,2.508,4.69,4.513.782,1.389,1.38,3.013,1.798,4.918.548,2.498,1.409,8.844-2.427,13.815-3.568,4.623-10.372,7.187-20.223,7.618-.187.008-.368.038-.544.079-1.389.318-2.399,1.583-2.334,3.054.071,1.612,1.405,2.872,3.008,2.872.045,0,.09-.001.135-.003,4.34-.19,8.212-.772,11.609-1.737.048.008.091.026.139.033,1.027.133,4.153.54,4.436,6.193.246,4.912-3.981,6.679-5.81,7.211-9.863,2.867-29.772,3.048-35.524,2.788Zm16.224,32.628c-5.886-11.227-7.52-22.323-7.951-26.579,5-.079,11.376-.341,17.382-.999.523,2.781,2.215,10.262,6.437,18.192,6.864,12.893,17.238,20.881,30.038,23.193-.034,5.68.019,11.286.124,16.573-21.186-2.311-36.665-12.516-46.031-30.38Zm55.046-29.205c2.792-13.918,9.554-33.975,25.911-50.487,19.181-19.363,47.174-29.733,83.203-30.821,2.165-.065,4.297-.098,6.402-.098,35.25,0,61.999,9.172,79.565,27.301,16.087,16.603,24.935,41.166,26.298,73.007-15.759,12.834-55.003,20.632-116.722,23.175-30.376,1.251-84.372.969-107.398-14.717.418-10.271,1.252-19.936,2.741-27.359Zm-37.39,159.79c4.451-1.206,9.686-.324,15.224,1.654l-7.728,12.735c-.09.148-.158.304-.219.46l-15.172-9.503c2.253-2.759,4.859-4.523,7.896-5.346Zm76.417,78.475c-2.046-.614-6.839-3.294-12.866-6.935-1.185-.716-2.418-1.469-3.686-2.251-1.132-.698-2.293-1.418-3.475-2.156-6.072-3.79-12.688-8.027-18.744-11.905-4.442-2.845-8.981-5.751-13.47-8.599l-2.095-1.328c-25.051-15.877-37.473-24.375-33.137-34.838l85.063,53.276,4.014,2.514,4.19,2.624,1.078.675c-3.328,4.81-5.654,7.822-6.873,8.923Zm11.713-16.115c-.502.763-.99,1.5-1.465,2.212l-2.982-1.868-71.405-44.722c.137-.147.265-.305.373-.484l8.209-13.528c2.154.985,4.329,2.079,6.497,3.23l-1.351,2.356c-2.304.466-4.044,2.501-4.044,4.934,0,2.776,2.266,5.034,5.05,5.034s5.05-2.259,5.05-5.034c0-.852-.215-1.654-.591-2.359l1.165-2.032c1.532.864,3.051,1.733,4.545,2.589.762.437,1.511.864,2.257,1.291l-.989,1.782c-2.448.347-4.338,2.444-4.338,4.978,0,2.776,2.266,5.034,5.05,5.034s5.05-2.259,5.05-5.034c0-.753-.171-1.465-.47-2.107l.949-1.711c1.172.641,2.336,1.268,3.488,1.861,1,.515,2.065.951,3.178,1.301l-.34,2.333c-1.448.886-2.419,2.475-2.419,4.289,0,2.776,2.266,5.034,5.05,5.034s5.05-2.259,5.05-5.034c0-1.481-.649-2.811-1.673-3.733l.275-1.885c2.621.089,5.333-.266,7.979-1.141l1.292,3.336c-.547.804-.867,1.774-.867,2.817,0,2.776,2.266,5.034,5.05,5.034s5.05-2.259,5.05-5.034c0-2.253-1.493-4.166-3.545-4.806l-1.545-3.991c1.992-1.322,3.867-3.01,5.539-5.108.068-.085.131-.174.189-.266l.228-.361,31.402,19.02c-8.015,13.188-14.729,23.85-19.942,31.77Zm23.056-36.913l-31.301-18.959,13.051-20.63c10.288.16,22.518.258,35.447.258,1.99,0,3.999-.003,6.017-.007-8.537,14.745-16.313,27.899-23.214,39.338Zm173.85,62.042c-7.971,2.244-13.741-1.828-18.957-9.74l13.261-4.598c.173-.06.333-.139.488-.226l5.385,14.506c-.06.018-.115.04-.176.058Zm-18.645-97.158c2.537,1.993,7.867,18.004,11.765,29.712.983,2.953,1.985,5.964,3.002,8.963l.709,2.091c6.344,18.684,14.24,41.938,9.01,51.841-.172.327-.363.632-.564.926l-34.523-93.005c5.59-.906,9.252-1.089,10.601-.529Zm-16.616,1.635l27.994,75.415c-.137.027-.273.05-.409.097l-14.406,4.995c-1.056-1.958-2.103-4.061-3.156-6.288l2.471-1.156c.718.386,1.539.606,2.411.606,2.809,0,5.095-2.278,5.095-5.079s-2.285-5.079-5.095-5.079c-2.483,0-4.554,1.781-5.002,4.128l-2.377,1.112c-.469-1.056-.941-2.129-1.419-3.223l-.661-1.515,2.785-1.687c.554.206,1.15.324,1.775.324,2.81,0,5.095-2.278,5.095-5.079s-2.285-5.079-5.095-5.079c-2.718,0-4.938,2.133-5.081,4.808l-2.215,1.342c-1.141-1.903-2.452-3.757-3.926-5.481l2.152-2.198c.133.01.265.02.401.02,2.81,0,5.095-2.278,5.095-5.079s-2.285-5.079-5.095-5.079-5.095,2.278-5.095,5.079c0,.386.047.76.129,1.121l-1.875,1.915c-1.753-1.432-3.661-2.656-5.706-3.603l.855-2.471c2.284-.501,3.999-2.532,3.999-4.957,0-2.801-2.285-5.079-5.095-5.079s-5.095,2.278-5.095,5.079c0,.909.244,1.762.666,2.501l-1.084,3.135c-2.779-.464-5.749-.411-8.895.321-.107.025-.222.054-.33.08l-10.219-34.524c14.823-4.424,27.255-7.575,36.409-9.422Zm-56.873,12.724c.527,1.561,2.216,2.41,3.788,1.898,3.749-1.217,7.387-2.366,10.91-3.451l10.138,34.248c-1.583.417-3.204.853-4.876,1.303-14.65,3.95-32.882,8.866-41.237,4.323-2.936-1.596-8.976-7.84-16.438-31.717-3.34-10.686-5.694-20.933-6.636-25.258,12.933-.105,25.919-.32,37.827-.675l6.525,19.329Zm31.23-27.461c-35.022,3.775-136.773,3.108-156.641,1.891-18.698-1.144-29.012-15.278-31.477-43.156,7.113,6.931,21.679,15.237,50.919,16.175,4.088.131,8.841.19,14.073.19,28.884,0,72.316-1.787,98.453-3.04,5.172,7.586,11.322,16.287,16.514,19.721,3.651,2.415,10.192,1.52,12.937-2.326.868-1.216,1.301-2.46,1.456-3.724.299-2.439,3.297-3.441,4.998-1.663,1.918,2.005,5.501,4.675,8.603,7.95.247.26.493.516.74.768-4.989,3.635-11.64,6.25-20.575,7.213Zm35.506-38.168c-.537,4.552-1.379,9.324-2.929,13.899-2.919-3.273-6.04-6.159-8.926-9.447,4.592-1.65,8.834-3.895,12.145-6.978-.09.819-.187,1.656-.289,2.526Zm1.156-17.908c-.001.017-.006.032-.007.049-.741,16.504-22.156,19.943-43.006,21.131-17.813,1.014-97.048,4.881-130.654,3.802-44.926-1.441-51.665-21.024-51.781-21.381-.01-.035-.029-.064-.04-.099-.276-5.478-.617-13.418-.825-22.461,5.957-1.907,12.249-4.409,17.768-2.952,14.421,3.806,9.331,13.108,22.056,18.182,12.725,5.074,22.445-8.88,32.66-8.88,13.573,0,16.118,10.571,32.236,11.417,16.118.846,23.341-12.55,33.508-13.531,13.149-1.268,21.032,9.207,32.236,7.611,17.815-2.537,13.309-14.289,27.57-19.028,6.383-2.121,16.47,3.349,27.761,1.801.392,11.216.554,18.678.518,24.337Zm19.161-23.845c-5.707-4.536-11.103-6.786-13.911-7.75-.221-5.814-.491-12.462-.811-20.139,4.528,1.09,12.366,3.542,20.453,8.7,15.844,10.105,25.433,25.539,28.566,45.874-4.282,1.26-10.491,3.799-15.404,6.026-3.209-17.081-11.921-27.169-18.893-32.71Zm60.68,83.199c-.246,4.66-3.361,6.465-5.89,7.159.023-.564.035-1.117.035-1.646,0-6.01-1.749-11.891-1.823-12.139-.478-1.588-2.156-2.49-3.749-2.013-1.593.475-2.499,2.148-2.024,3.737.015.053,1.57,5.309,1.57,10.415,0,6.991-1.957,8.758-4.072,9.626-.93.381-2.511.045-3.878-.468.154-1.19.2-2.435.114-3.72-.303-4.525-2.575-11.928-2.672-12.241-.489-1.585-2.174-2.474-3.765-1.988-1.59.488-2.483,2.168-1.994,3.754.601,1.948,2.206,7.699,2.419,10.875.268,4.011-1.33,7.662-3.563,8.139-1.658.356-4.676-.511-6.175-4.353-.871-2.232-4.302-15.015-6.395-23.062-.418-1.606-2.064-2.569-3.673-2.153-1.611.417-2.577,2.056-2.16,3.662.318,1.222,2.096,8.039,3.77,14.132-1.735-.697-3.227-1.889-4.443-3.59-2.987-4.177-4.004-11.097-2.53-17.22,2.138-8.88,15.785-14.317,15.979-14.393,1.549-.602,2.317-2.342,1.714-3.887-.603-1.546-2.35-2.311-3.9-1.711-.308.12-3.75,1.483-7.698,4.035-.115.002-.229-.004-.347.012-.666.072-4.063.248-5.606-3.513-1.79-4.363,2.935-7.954,5.05-9.296,2.8-1.776,18.262-8.66,23.171-9.433,5.725-.902,9.216-.619,11.256,3.45,1.469,2.929,2.493,5.836-.663,9.09-4.018-.685-8.603.316-9.201.454-1.619.375-2.626,1.986-2.252,3.601.374,1.615,1.993,2.621,3.612,2.251,1.991-.455,5.88-.894,7.839-.129,10.772,4.202,9.976,19.696,9.967,19.846-.031.493.066.999.271,1.448.021.045,2.059,4.595,1.707,11.269Z" width="20px" style="" stroke-width="0px"/></svg>